Walking01_kinetics.mot
version=1
nRows=24
nColumns=19
inDegrees=yes
endheader
time	1_ground_force_vx	1_ground_force_vy	1_ground_force_vz	1_ground_force_px	1_ground_force_py	1_ground_force_pz	2_ground_force_vx	2_ground_force_vy	2_ground_force_vz	2_ground_force_px	2_ground_force_py	2_ground_force_pz	1_ground_torque_x	1_ground_torque_y	1_ground_torque_z	2_ground_torque_x	2_ground_torque_y	2_ground_torque_z
  0.25500000	-21.78469722	478.79671627	-33.52112943	 -0.40056214	 -0.00034028	  0.12695031	  0.00000000	  0.00000000	  0.00000000	  0.30181907	  0.00246885	 -0.10097818	  0.00036931	  0.28531325	 -0.00018163	  0.00000000	  0.00000000	  0.00000000
  0.25600000	-21.56857381	477.73400266	-33.42034110	 -0.39992217	 -0.00034104	  0.12705460	  0.00000000	  0.00000000	  0.00000000	  0.30181907	  0.00246885	 -0.10097818	  0.00037273	  0.28795541	 -0.00018331	  0.00000000	  0.00000000	  0.00000000
  0.25700000	-21.34601496	476.72060671	-33.31674387	 -0.39928485	 -0.00034180	  0.12715971	  0.00000000	  0.00000000	  0.00000000	  0.30181907	  0.00246885	 -0.10097818	  0.00037766	  0.29176551	 -0.00018574	  0.00000000	  0.00000000	  0.00000000
  0.25800000	-21.11610161	475.75049438	-33.20695194	 -0.39864916	 -0.00034256	  0.12726168	  0.00000000	  0.00000000	  0.00000000	  0.30181907	  0.00246885	 -0.10097818	  0.00038338	  0.29618298	 -0.00018855	  0.00000000	  0.00000000	  0.00000000
  0.25900000	-20.87944367	474.82062972	-33.09025959	 -0.39801115	 -0.00034332	  0.12735697	  0.00000000	  0.00000000	  0.00000000	  0.30181907	  0.00246885	 -0.10097818	  0.00038954	  0.30094023	 -0.00019158	  0.00000000	  0.00000000	  0.00000000
  0.26000000	-20.63835264	473.93032687	-32.96847955	 -0.39736512	 -0.00034410	  0.12744302	  0.00000000	  0.00000000	  0.00000000	  0.30181907	  0.00246885	 -0.10097818	  0.00039631	  0.30617334	 -0.00019491	  0.00000000	  0.00000000	  0.00000000
  0.26100000	-20.39669577	473.07891863	-32.84452296	 -0.39670606	 -0.00034491	  0.12751840	  0.00000000	  0.00000000	  0.00000000	  0.30181907	  0.00246885	 -0.10097818	  0.00040419	  0.31225621	 -0.00019878	  0.00000000	  0.00000000	  0.00000000
  0.26200000	-20.15919996	472.26409622	-32.72078629	 -0.39603175	 -0.00034574	  0.12758302	  0.00000000	  0.00000000	  0.00000000	  0.30181907	  0.00246885	 -0.10097818	  0.00041368	  0.31958934	 -0.00020345	  0.00000000	  0.00000000	  0.00000000
  0.26300000	-19.93017707	471.48243591	-32.59818341	 -0.39534344	 -0.00034660	  0.12763847	  0.00000000	  0.00000000	  0.00000000	  0.30181907	  0.00246885	 -0.10097818	  0.00042523	  0.32851126	 -0.00020913	  0.00000000	  0.00000000	  0.00000000
  0.26400000	-19.71238730	470.73065536	-32.47587730	 -0.39464523	 -0.00034747	  0.12768801	  0.00000000	  0.00000000	  0.00000000	  0.30181907	  0.00246885	 -0.10097818	  0.00043918	  0.33928857	 -0.00021599	  0.00000000	  0.00000000	  0.00000000
  0.26500000	-19.50697195	470.00531097	-32.35155269	 -0.39394304	 -0.00034835	  0.12773546	  0.00000000	  0.00000000	  0.00000000	  0.30181907	  0.00246885	 -0.10097818	  0.00045574	  0.35207882	 -0.00022413	  0.00000000	  0.00000000	  0.00000000
  0.26600000	-19.31436611	469.30108535	-32.22209966	 -0.39324342	 -0.00034922	  0.12778327	  0.00000000	  0.00000000	  0.00000000	  0.30181907	  0.00246885	 -0.10097818	  0.00047485	  0.36684965	 -0.00023354	  0.00000000	  0.00000000	  0.00000000
  0.26700000	-19.13501089	468.61037914	-32.08447072	 -0.39255240	 -0.00035009	  0.12783130	  0.00000000	  0.00000000	  0.00000000	  0.30181907	  0.00246885	 -0.10097818	  0.00049616	  0.38331179	 -0.00024402	  0.00000000	  0.00000000	  0.00000000
  0.26800000	-18.96905086	467.92591245	-31.93650213	 -0.39187477	 -0.00035093	  0.12787734	  0.00000000	  0.00000000	  0.00000000	  0.30181907	  0.00246885	 -0.10097818	  0.00051896	  0.40091983	 -0.00025523	  0.00000000	  0.00000000	  0.00000000
  0.26900000	-18.81547158	467.24439885	-31.77757279	 -0.39121367	 -0.00035176	  0.12791874	  0.00000000	  0.00000000	  0.00000000	  0.30181907	  0.00246885	 -0.10097818	  0.00054232	  0.41896954	 -0.00026672	  0.00000000	  0.00000000	  0.00000000
  0.27000000	-18.67149691	466.56833095	-31.60899215	 -0.39057063	 -0.00035257	  0.12795362	  0.00000000	  0.00000000	  0.00000000	  0.30181907	  0.00246885	 -0.10097818	  0.00056542	  0.43681696	 -0.00027808	  0.00000000	  0.00000000	  0.00000000
  0.27100000	-18.53253058	465.90517319	-31.43399157	 -0.38994596	 -0.00035336	  0.12798152	  0.00000000	  0.00000000	  0.00000000	  0.30181907	  0.00246885	 -0.10097818	  0.00058785	  0.45414807	 -0.00028911	  0.00000000	  0.00000000	  0.00000000
  0.27200000	-18.39267023	465.26478445	-31.25704638	 -0.38933924	 -0.00035414	  0.12800340	  0.00000000	  0.00000000	  0.00000000	  0.30181907	  0.00246885	 -0.10097818	  0.00060974	  0.47105463	 -0.00029988	  0.00000000	  0.00000000	  0.00000000
  0.27300000	-18.24574791	464.65599981	-31.08245745	 -0.38874976	 -0.00035489	  0.12802112	  0.00000000	  0.00000000	  0.00000000	  0.30181907	  0.00246885	 -0.10097818	  0.00063139	  0.48778118	 -0.00031052	  0.00000000	  0.00000000	  0.00000000
  0.27400000	-18.08651385	464.08381513	-30.91289344	 -0.38817677	 -0.00035562	  0.12803665	  0.00000000	  0.00000000	  0.00000000	  0.30181907	  0.00246885	 -0.10097818	  0.00065290	  0.50440204	 -0.00032110	  0.00000000	  0.00000000	  0.00000000
  0.27500000	-17.91149682	463.54875819	-30.74880895	 -0.38761935	 -0.00035633	  0.12805146	  0.00000000	  0.00000000	  0.00000000	  0.30181907	  0.00246885	 -0.10097818	  0.00067413	  0.52079738	 -0.00033154	  0.00000000	  0.00000000	  0.00000000
  0.27600000	-17.71939819	463.04842883	-30.58887915	 -0.38707611	 -0.00035703	  0.12806598	  0.00000000	  0.00000000	  0.00000000	  0.30181907	  0.00246885	 -0.10097818	  0.00069501	  0.53693076	 -0.00034181	  0.00000000	  0.00000000	  0.00000000
  0.27700000	-17.51101875	462.57960895	-30.43097740	 -0.38654508	 -0.00035770	  0.12807964	  0.00000000	  0.00000000	  0.00000000	  0.30181907	  0.00246885	 -0.10097818	  0.00071590	  0.55306675	 -0.00035208	  0.00000000	  0.00000000	  0.00000000
  0.27800000	-17.28873209	462.13969243	-30.27325984	 -0.38602420	 -0.00035837	  0.12809150	  0.00000000	  0.00000000	  0.00000000	  0.30181907	  0.00246885	 -0.10097818	  0.00073740	  0.56967746	 -0.00036266	  0.00000000	  0.00000000	  0.00000000
